<?xml version="1.0" encoding="UTF-8" standalone="no"?>
<!-- Created with Inkscape (http://www.inkscape.org/) -->

<svg
   xmlns:dc="http://purl.org/dc/elements/1.1/"
   xmlns:cc="http://creativecommons.org/ns#"
   xmlns:rdf="http://www.w3.org/1999/02/22-rdf-syntax-ns#"
   xmlns:svg="http://www.w3.org/2000/svg"
   xmlns="http://www.w3.org/2000/svg"
   xmlns:sodipodi="http://sodipodi.sourceforge.net/DTD/sodipodi-0.dtd"
   xmlns:inkscape="http://www.inkscape.org/namespaces/inkscape"
   width="40mm"
   height="40mm"
   viewBox="0 0 40 40"
   version="1.1"
   id="svg8"
   inkscape:version="0.92.5 (2060ec1f9f, 2020-04-08)"
   sodipodi:docname="lnurl.svg">
  <defs
     id="defs2" />
  <sodipodi:namedview
     id="base"
     pagecolor="#ffffff"
     bordercolor="#666666"
     borderopacity="1.0"
     inkscape:pageopacity="0.0"
     inkscape:pageshadow="2"
     inkscape:zoom="2.8"
     inkscape:cx="38.630923"
     inkscape:cy="50.815964"
     inkscape:document-units="mm"
     inkscape:current-layer="layer1"
     showgrid="false"
     inkscape:window-width="2400"
     inkscape:window-height="1271"
     inkscape:window-x="3191"
     inkscape:window-y="-9"
     inkscape:window-maximized="1" />
  <metadata
     id="metadata5">
    <rdf:RDF>
      <cc:Work
         rdf:about="">
        <dc:format>image/svg+xml</dc:format>
        <dc:type
           rdf:resource="http://purl.org/dc/dcmitype/StillImage" />
        <dc:title />
      </cc:Work>
    </rdf:RDF>
  </metadata>
  <g
     inkscape:label="Layer 1"
     inkscape:groupmode="layer"
     id="layer1"
     transform="translate(0,-257)">
    <rect
       style="fill:#ffffff;fill-opacity:1;stroke:none;stroke-width:24.9860611;stroke-miterlimit:4;stroke-dasharray:none;stroke-opacity:1"
       id="rect821"
       width="40"
       height="40"
       x="0"
       y="257"
       ry="10.02261" />
    <g
       id="g839"
       transform="matrix(0.04678499,0,0,0.04675949,8.0228891,265.02958)"
       style="fill:#ffa026;fill-opacity:1;stroke:#ffa026;stroke-width:21.82918839;stroke-miterlimit:4;stroke-dasharray:none;stroke-opacity:1">
      <g
         id="icomoon-ignore"
         style="fill:#ffa026;fill-opacity:1;stroke:#ffa026;stroke-width:21.82918839;stroke-miterlimit:4;stroke-dasharray:none;stroke-opacity:1" />
      <path
         id="path824"
         d="m 220.118,317.883 c -6.655,0 -13.308,-2.538 -18.385,-7.615 -47.567,-47.568 -47.567,-124.967 0,-172.535 l 96,-96 C 320.777,18.69 351.413,6 384,6 c 32.587,0 63.224,12.69 86.268,35.732 47.566,47.568 47.566,124.967 0,172.535 l -43.883,43.883 c -10.154,10.154 -26.615,10.154 -36.77,0 -10.153,-10.153 -10.153,-26.616 0,-36.77 l 43.883,-43.883 c 27.292,-27.293 27.292,-71.702 0,-98.995 C 420.277,65.281 402.698,58 384,58 c -18.698,0 -36.276,7.281 -49.498,20.503 l -96,95.999 c -27.293,27.293 -27.293,71.703 0,98.996 10.154,10.153 10.153,26.616 0,36.77 -5.075,5.076 -11.731,7.615 -18.384,7.615 z"
         inkscape:connector-curvature="0"
         style="fill:#ffa026;fill-opacity:1;stroke:#ffa026;stroke-width:21.82918839;stroke-miterlimit:4;stroke-dasharray:none;stroke-opacity:1" />
      <path
         id="path826"
         d="M 128,506 C 95.412,506 64.775,493.31 41.733,470.268 -5.834,422.7 -5.834,345.301 41.733,297.733 l 43.882,-43.882 c 10.154,-10.153 26.617,-10.153 36.77,0 10.154,10.153 10.154,26.616 0,36.77 l -43.882,43.882 c -27.293,27.293 -27.293,71.703 0,98.996 C 91.723,446.719 109.302,454 128,454 c 18.698,0 36.276,-7.281 49.499,-20.503 l 96,-95.999 c 27.292,-27.293 27.292,-71.703 0,-98.996 -10.154,-10.154 -10.153,-26.616 0,-36.77 10.153,-10.153 26.616,-10.153 36.77,0.001 47.566,47.567 47.566,124.966 10e-4,172.534 l -96.001,96 C 191.224,493.311 160.587,506 128,506 Z"
         inkscape:connector-curvature="0"
         style="fill:#ffa026;fill-opacity:1;stroke:#ffa026;stroke-width:21.82918839;stroke-miterlimit:4;stroke-dasharray:none;stroke-opacity:1" />
    </g>
    <rect
       style="fill:#ffffff;fill-opacity:1;stroke:none;stroke-width:24.4755249;stroke-miterlimit:4;stroke-dasharray:none;stroke-opacity:1"
       id="rect1410"
       width="25"
       height="25"
       x="61.11742"
       y="258.86499" />
  </g>
</svg>
