<svg width="21" height="21" viewBox="0 0 21 21" fill="none" xmlns="http://www.w3.org/2000/svg">
<rect x="0.5" y="0.5" width="20" height="20" rx="4" fill="#FDFDFD"/>
<rect x="0.5" y="0.5" width="20" height="20" rx="4" stroke="#180931" stroke-opacity="0.2"/>
<g clip-path="url(#clip0_2208_2317)">
<path d="M15.9999 9.14343C15.9066 8.95343 15.7132 8.83343 15.5016 8.83343H11.1221L11.6088 4.4501C11.6366 4.20232 11.4955 3.96676 11.2644 3.87343C11.0327 3.77899 10.7677 3.85232 10.616 4.04954L5.06047 11.2718C4.93158 11.4395 4.9088 11.6662 5.00269 11.8562C5.09658 12.0468 5.28991 12.1668 5.50158 12.1668H9.88102L9.39435 16.5501C9.36658 16.7979 9.50769 17.0334 9.7388 17.1268C9.80602 17.154 9.87658 17.1668 9.94602 17.1668C10.1149 17.1668 10.2794 17.0895 10.3866 16.9501L15.9421 9.72787C16.071 9.5601 16.0932 9.33343 15.9999 9.14343Z" fill="#F7931A"/>
</g>
<defs>
<clipPath id="clip0_2208_2317">
<rect width="13.3333" height="13.3333" fill="white" transform="translate(3.83398 3.8335)"/>
</clipPath>
</defs>
</svg>
