<svg width="59" height="16" viewBox="0 0 59 16" fill="none" xmlns="http://www.w3.org/2000/svg">
<path d="M57.596 8.99496C57.596 5.96968 55.2988 3.59961 52.3625 3.59961C49.4262 3.59961 47.1289 5.96968 47.1289 8.99496C47.1289 11.9717 49.5475 14.3903 52.5243 14.3903C54.1987 14.3903 55.7437 13.638 56.771 12.3195L54.8539 11.268C54.2391 11.8989 53.414 12.2467 52.5243 12.2467C51.1815 12.2467 49.96 11.4055 49.4747 10.1436L49.4424 10.0546H57.596V8.99496ZM49.4181 7.92721L49.4504 7.83823C49.8872 6.56018 51.0278 5.7351 52.3625 5.7351C53.6972 5.7351 54.8377 6.56018 55.2745 7.83823L55.3069 7.92721H49.4181Z" fill="white"/>
<path d="M45.4945 8.99496C45.4945 5.96968 43.1972 3.59961 40.2609 3.59961C37.3246 3.59961 35.0273 5.96968 35.0273 8.99496C35.0273 11.9717 37.4459 14.3903 40.4227 14.3903C42.0971 14.3903 43.6421 13.638 44.6694 12.3195L42.7523 11.268C42.1376 11.8989 41.3125 12.2467 40.4227 12.2467C39.0799 12.2467 37.8585 11.4055 37.3731 10.1436L37.3408 10.0546H45.4945V8.99496ZM37.3165 7.92721L37.3489 7.83823C37.7857 6.56018 38.9262 5.7351 40.2609 5.7351C41.5956 5.7351 42.7361 6.56018 43.1729 7.83823L43.2053 7.92721H37.3165Z" fill="white"/>
<path d="M19.0438 14.3903C16.067 14.3903 13.6484 11.9717 13.6484 8.99496C13.6484 6.01821 16.067 3.59961 19.0438 3.59961C20.8557 3.59961 22.5301 4.49749 23.5413 6.01013L21.5999 6.97271C20.9771 6.18808 20.0468 5.7351 19.0438 5.7351C17.248 5.7351 15.7839 7.1992 15.7839 8.99496C15.7839 10.7907 17.248 12.2548 19.0438 12.2548C20.0468 12.2548 20.9771 11.8018 21.5999 11.0172L23.5413 11.9798C22.5382 13.4843 20.8557 14.3903 19.0438 14.3903Z" fill="white"/>
<path d="M9.68646 3.99597V4.69162L9.5813 4.61882C8.65916 3.94744 7.56714 3.59961 6.4266 3.59961C3.44985 3.59961 1.03125 6.01821 1.03125 8.99496C1.03125 11.9717 3.44985 14.3903 6.4266 14.3903C7.56714 14.3903 8.65916 14.0344 9.5813 13.3711L9.68646 13.2983V13.9939H11.8219V3.99597H9.68646ZM6.4266 12.2467C4.63085 12.2467 3.16674 10.7826 3.16674 8.98687C3.16674 7.19112 4.63085 5.72701 6.4266 5.72701C8.22235 5.72701 9.68646 7.1992 9.68646 8.99496C9.68646 10.7907 8.22235 12.2467 6.4266 12.2467Z" fill="white"/>
<path d="M31.7764 13.9939L28.5732 10.1436H27.3113V13.9939H25.1758V0H27.3113V7.83822H28.5732L31.7683 3.99596H34.5509L30.3932 8.99495L34.559 13.9939H31.7764Z" fill="white"/>
</svg>
