<svg width="100" height="100" viewBox="0 0 100 100" fill="none" xmlns="http://www.w3.org/2000/svg">
<rect width="100" height="100" fill="#F7931A"/>
<rect width="100" height="100" fill="url(#paint0_linear_94_351)" fill-opacity="0.5"/>
<path d="M72.2602 42.8428C73.2497 36.1718 68.0899 32.6278 61.0924 30.1956L63.3542 21.1619L57.7703 19.7721L55.5791 28.5279C54.0948 28.1804 52.6105 27.833 51.1262 27.4855L53.388 18.6603L47.8041 17.2705L45.5423 26.3042C44.3407 26.0262 43.139 25.7483 42.0081 25.4703L34.3038 23.5941L32.8194 29.4313C32.8194 29.4313 36.9897 30.3346 36.8483 30.4041C39.1102 30.96 39.5343 32.4193 39.4636 33.6007L36.8483 43.8852C36.9897 43.9547 37.2017 43.9547 37.4138 44.0936C37.2017 44.0241 37.0604 44.0241 36.8483 43.9547L33.1728 58.3391C32.8901 59.034 32.1833 60.0068 30.6283 59.6594C30.699 59.7289 26.5994 58.6865 26.5994 58.6865L23.8428 64.9406L31.1231 66.7474C32.466 67.0948 33.809 67.4423 35.0813 67.7897L32.7488 76.8929L38.3327 78.2827L40.5945 69.249C42.1495 69.6659 43.5631 70.0134 45.0475 70.3608L42.7856 79.3251L48.3696 80.7149L50.7021 71.6117C60.2442 73.3489 67.3831 72.654 70.4224 64.1762C72.8256 57.3662 70.2811 53.4053 65.2626 50.8342C68.7967 50.0698 71.5534 47.7071 72.2602 42.8428ZM59.5374 60.4238C57.841 67.2338 46.1077 63.5508 42.3615 62.6475L45.4009 50.5562C49.2177 51.4596 61.3044 53.3358 59.5374 60.4238ZM61.2337 42.7733C59.6787 48.9579 49.9246 45.8309 46.8145 45.0665L49.5711 34.0871C52.7518 34.8515 62.9301 36.3108 61.2337 42.7733Z" fill="black"/>
<defs>
<linearGradient id="paint0_linear_94_351" x1="50" y1="0" x2="50" y2="100" gradientUnits="userSpaceOnUse">
<stop stop-color="white"/>
<stop offset="1" stop-color="white" stop-opacity="0.7"/>
</linearGradient>
</defs>
</svg>
