<svg width="24" height="25" viewBox="0 0 24 25" fill="none" xmlns="http://www.w3.org/2000/svg">
<path d="M0 6.5127C0 3.19899 2.68629 0.512695 6 0.512695H18C21.3137 0.512695 24 3.19899 24 6.5127V18.5127C24 21.8264 21.3137 24.5127 18 24.5127H6C2.68629 24.5127 0 21.8264 0 18.5127V6.5127Z" fill="#F7931A"/>
<path d="M0 6.5127C0 3.19899 2.68629 0.512695 6 0.512695H18C21.3137 0.512695 24 3.19899 24 6.5127V18.5127C24 21.8264 21.3137 24.5127 18 24.5127H6C2.68629 24.5127 0 21.8264 0 18.5127V6.5127Z" fill="url(#paint0_linear_2067_8909)" fill-opacity="0.5"/>
<path d="M6 0.592773H18C21.2695 0.592773 23.9199 3.24319 23.9199 6.5127V18.5127C23.9199 21.7822 21.2695 24.4326 18 24.4326H6C2.73049 24.4326 0.0800781 21.7822 0.0800781 18.5127V6.5127C0.0800781 3.24319 2.73049 0.592773 6 0.592773Z" stroke="white" stroke-opacity="0.2" stroke-width="0.160057"/>
<path d="M17.3428 10.7949C17.5803 9.19384 16.342 8.34328 14.6626 7.75956L15.2054 5.59148L13.8653 5.25792L13.3394 7.3593C12.9831 7.27591 12.6269 7.19253 12.2707 7.10914L12.8135 4.99108L11.4734 4.65753L10.9305 6.82562C10.6421 6.75891 10.3538 6.6922 10.0823 6.62549L8.23329 6.17519L7.87705 7.57611C7.87705 7.57611 8.87791 7.79292 8.84399 7.8096C9.38683 7.94302 9.48861 8.29325 9.47165 8.57677L8.84399 11.045C8.87791 11.0617 8.92881 11.0617 8.9797 11.0951C8.92881 11.0784 8.89488 11.0784 8.84399 11.0617L7.96187 14.514C7.89402 14.6808 7.72438 14.9143 7.35118 14.8309C7.36814 14.8475 6.38424 14.5974 6.38424 14.5974L5.72266 16.0984L7.46992 16.532C7.79224 16.6154 8.11455 16.6988 8.41989 16.7821L7.86009 18.9669L9.20023 19.3005L9.74307 17.1324C10.1163 17.2324 10.4555 17.3158 10.8118 17.3992L10.2689 19.5506L11.6091 19.8842L12.1689 17.6994C14.459 18.1164 16.1723 17.9496 16.9018 15.9149C17.4785 14.2805 16.8678 13.3299 15.6634 12.7128C16.5116 12.5294 17.1732 11.9623 17.3428 10.7949ZM14.2894 15.0143C13.8822 16.6487 11.0662 15.7648 10.1672 15.548L10.8966 12.6461C11.8126 12.8629 14.7134 13.3132 14.2894 15.0143ZM14.6965 10.7782C14.3233 12.2625 11.9823 11.512 11.2359 11.3286L11.8975 8.69351C12.6608 8.87696 15.1036 9.22719 14.6965 10.7782Z" fill="black"/>
<defs>
<linearGradient id="paint0_linear_2067_8909" x1="12" y1="0.512695" x2="12" y2="24.5127" gradientUnits="userSpaceOnUse">
<stop stop-color="white"/>
<stop offset="1" stop-color="white" stop-opacity="0.7"/>
</linearGradient>
</defs>
</svg>
