<?xml version="1.0" encoding="UTF-8" standalone="no"?>
<!-- Created with Inkscape (http://www.inkscape.org/) -->

<svg
   xmlns:dc="http://purl.org/dc/elements/1.1/"
   xmlns:cc="http://creativecommons.org/ns#"
   xmlns:rdf="http://www.w3.org/1999/02/22-rdf-syntax-ns#"
   xmlns:svg="http://www.w3.org/2000/svg"
   xmlns="http://www.w3.org/2000/svg"
   xmlns:sodipodi="http://sodipodi.sourceforge.net/DTD/sodipodi-0.dtd"
   xmlns:inkscape="http://www.inkscape.org/namespaces/inkscape"
   width="40.3577mm"
   height="40.3577mm"
   viewBox="0 0 40.3577 40.3577"
   version="1.1"
   id="svg8"
   inkscape:version="0.92.5 (2060ec1f9f, 2020-04-08)"
   sodipodi:docname="BOTANIX.svg">
  <defs
     id="defs2">
    <style
       id="style4518">.cls-1{fill:#fff;}.cls-2{fill:#ffd966;}</style>
  </defs>
  <sodipodi:namedview
     id="base"
     pagecolor="#ffffff"
     bordercolor="#666666"
     borderopacity="1.0"
     inkscape:pageopacity="0.0"
     inkscape:pageshadow="2"
     inkscape:zoom="1.979899"
     inkscape:cx="-46.200199"
     inkscape:cy="69.933543"
     inkscape:document-units="mm"
     inkscape:current-layer="layer1"
     showgrid="false"
     inkscape:window-width="2560"
     inkscape:window-height="1361"
     inkscape:window-x="-9"
     inkscape:window-y="-9"
     inkscape:window-maximized="1" />
  <metadata
     id="metadata5">
    <rdf:RDF>
      <cc:Work
         rdf:about="">
        <dc:format>image/svg+xml</dc:format>
        <dc:type
           rdf:resource="http://purl.org/dc/dcmitype/StillImage" />
        <dc:title></dc:title>
      </cc:Work>
    </rdf:RDF>
  </metadata>
  <g
     inkscape:label="Layer 1"
     inkscape:groupmode="layer"
     id="layer1"
     transform="translate(-8.271891,-0.96205029)">
    <g
       id="g4628"
       transform="translate(-65.494495,-55.628997)">
      <circle
         r="20.17885"
         cy="76.769897"
         cx="93.945236"
         id="path4563"
         style="fill:#000000;fill-opacity:1;stroke:none;stroke-width:0.29594135;stroke-opacity:1" />
      <g
         transform="matrix(0.26458333,0,0,0.26458333,82.127625,64.645341)"
         id="Layer_1-2">
        <path
           style="fill:#ffffff"
           inkscape:connector-curvature="0"
           id="bottom_bar"
           class="cls-1"
           d="m 78.6,87.44 -6.31,2.19 -6.27,-18.72 c 0,0 -0.82,-3.09 -3.31,-3.09 H 26.59 c 0,0 -1.98,-0.43 -3.48,3.87 -1.5,4.29 -5.84,17.91 -5.84,17.91 l -6.53,-2.23 6.79,-20.61 c 0,0 2.66,-5.93 9.15,-5.93 h 36.46 c 0,0 7.04,-0.21 9.4,7.34 2.36,7.55 6.06,19.28 6.06,19.28 z" />
        <path
           style="fill:#ffffff"
           inkscape:connector-curvature="0"
           id="middlebottom_bar"
           class="cls-1"
           d="m 89.33,73.96 -6.17,2.86 -8.78,-19.05 c 0,0 -1.26,-2.95 -3.31,-3.09 -1.67,-0.11 -51.6,-0.1 -52.86,0 -1.26,0.1 -1.95,-0.3 -4.47,5.03 -2.29,4.84 -7.5,17.01 -7.5,17.01 L 0,73.91 9.15,53.6 c 0,0 2.19,-5.97 9.15,-5.93 6.49,0.04 50.72,-0.1 53.2,0 2.48,0.1 6.21,0.38 9.24,7 3.61,7.53 8.58,19.29 8.58,19.29 z" />
        <path
           style="fill:#ffd966"
           inkscape:connector-curvature="0"
           id="middletop_bar"
           class="cls-2"
           d="m 0,15.2 6.17,-2.86 8.78,19.05 c 0,0 1.26,2.95 3.31,3.09 1.67,0.11 51.6,0.1 52.86,0 1.26,-0.1 1.95,0.3 4.47,-5.03 2.29,-4.84 7.5,-17.01 7.5,-17.01 l 6.24,2.81 -9.15,20.31 c 0,0 -2.19,5.97 -9.15,5.93 -6.49,-0.04 -50.72,0.1 -53.2,0 -2.48,-0.1 -6.21,-0.38 -9.24,-7 C 4.97,26.96 0,15.2 0,15.2 Z" />
        <path
           style="fill:#ffd966"
           inkscape:connector-curvature="0"
           id="Top_bar"
           class="cls-2"
           d="M 10.74,2.19 17.05,0 23.32,18.72 c 0,0 0.82,3.09 3.31,3.09 h 36.12 c 0,0 1.98,0.43 3.48,-3.87 1.5,-4.3 5.84,-17.9 5.84,-17.9 l 6.53,2.23 -6.79,20.61 c 0,0 -2.66,5.93 -9.15,5.93 H 26.2 c 0,0 -7.04,0.21 -9.4,-7.34 C 14.44,13.92 10.74,2.19 10.74,2.19 Z" />
      </g>
    </g>
  </g>
</svg>
