<?xml version="1.0" encoding="UTF-8" standalone="no"?>
<!-- Created with Inkscape (http://www.inkscape.org/) -->

<svg
   width="25mm"
   height="25mm"
   viewBox="0 0 25 25"
   version="1.1"
   id="svg1934"
   inkscape:version="1.1.2 (0a00cf5339, 2022-02-04)"
   sodipodi:docname="BOTANIX.svg"
   xmlns:inkscape="http://www.inkscape.org/namespaces/inkscape"
   xmlns:sodipodi="http://sodipodi.sourceforge.net/DTD/sodipodi-0.dtd"
   xmlns="http://www.w3.org/2000/svg"
   xmlns:svg="http://www.w3.org/2000/svg">
  <sodipodi:namedview
     id="namedview1936"
     pagecolor="#ffffff"
     bordercolor="#666666"
     borderopacity="1.0"
     inkscape:pageshadow="2"
     inkscape:pageopacity="0.0"
     inkscape:pagecheckerboard="0"
     inkscape:document-units="mm"
     showgrid="false"
     inkscape:zoom="2.3380717"
     inkscape:cx="66.507798"
     inkscape:cy="133.65715"
     inkscape:window-width="1850"
     inkscape:window-height="1016"
     inkscape:window-x="0"
     inkscape:window-y="0"
     inkscape:window-maximized="1"
     inkscape:current-layer="layer1"
     width="25mm" />
  <defs
     id="defs1931">
    <style
       id="style1938">.cls-1{fill:#211d1d;}.cls-2{fill:#ffd966;}</style>
  </defs>
  <g
     inkscape:label="Layer 1"
     inkscape:groupmode="layer"
     id="layer1">
    <rect
       style="fill:#ffffff;stroke-width:0.186691"
       id="rect1978"
       width="25"
       height="25"
       x="0"
       y="0" />
    <g
       id="Layer_1-2"
       transform="matrix(0.18470838,0,0,0.18470838,4.25,4.2225)">
      <path
         id="bottom_bar"
         class="cls-1"
         d="m 78.6,87.44 -6.31,2.19 -6.27,-18.72 c 0,0 -0.82,-3.09 -3.31,-3.09 H 26.59 c 0,0 -1.98,-0.43 -3.48,3.87 -1.5,4.29 -5.84,17.91 -5.84,17.91 l -6.53,-2.23 6.79,-20.61 c 0,0 2.66,-5.93 9.15,-5.93 h 36.46 c 0,0 7.04,-0.21 9.4,7.34 2.36,7.55 6.06,19.28 6.06,19.28 z" />
      <path
         id="middlebottom_bar"
         class="cls-1"
         d="m 89.33,73.96 -6.17,2.86 -8.78,-19.05 c 0,0 -1.26,-2.95 -3.31,-3.09 -1.67,-0.11 -51.6,-0.1 -52.86,0 -1.26,0.1 -1.95,-0.3 -4.47,5.03 -2.29,4.84 -7.5,17.01 -7.5,17.01 L 0,73.91 9.15,53.6 c 0,0 2.19,-5.97 9.15,-5.93 6.49,0.04 50.72,-0.1 53.2,0 2.48,0.1 6.21,0.38 9.24,7 3.61,7.53 8.58,19.29 8.58,19.29 z" />
      <path
         id="middletop_bar"
         class="cls-2"
         d="m 0,15.2 6.17,-2.86 8.78,19.05 c 0,0 1.26,2.95 3.31,3.09 1.67,0.11 51.6,0.1 52.86,0 1.26,-0.1 1.95,0.3 4.47,-5.03 2.29,-4.84 7.5,-17.01 7.5,-17.01 l 6.24,2.81 -9.15,20.31 c 0,0 -2.19,5.97 -9.15,5.93 -6.49,-0.04 -50.72,0.1 -53.2,0 -2.48,-0.1 -6.21,-0.38 -9.24,-7 C 4.97,26.96 0,15.2 0,15.2 Z" />
      <path
         id="Top_bar"
         class="cls-2"
         d="M 10.74,2.19 17.05,0 23.32,18.72 c 0,0 0.82,3.09 3.31,3.09 h 36.12 c 0,0 1.98,0.43 3.48,-3.87 1.5,-4.3 5.84,-17.9 5.84,-17.9 l 6.53,2.23 -6.79,20.61 c 0,0 -2.66,5.93 -9.15,5.93 H 26.2 c 0,0 -7.04,0.21 -9.4,-7.34 C 14.44,13.92 10.74,2.19 10.74,2.19 Z" />
    </g>
  </g>
</svg>
