<?xml version="1.0" encoding="UTF-8" standalone="no"?>
<svg
   width="25"
   height="25"
   viewBox="0 0 25 25"
   fill="none"
   version="1.1"
   id="svg16"
   sodipodi:docname="CITREA.svg"
   inkscape:version="1.1.2 (0a00cf5339, 2022-02-04)"
   xmlns:inkscape="http://www.inkscape.org/namespaces/inkscape"
   xmlns:sodipodi="http://sodipodi.sourceforge.net/DTD/sodipodi-0.dtd"
   xmlns="http://www.w3.org/2000/svg"
   xmlns:svg="http://www.w3.org/2000/svg">
  <defs
     id="defs20" />
  <sodipodi:namedview
     id="namedview18"
     pagecolor="#ffffff"
     bordercolor="#666666"
     borderopacity="1.0"
     inkscape:pageshadow="2"
     inkscape:pageopacity="0.0"
     inkscape:pagecheckerboard="0"
     showgrid="false"
     inkscape:snap-global="true"
     inkscape:zoom="7.1396911"
     inkscape:cx="18.278102"
     inkscape:cy="36.206048"
     inkscape:window-width="1850"
     inkscape:window-height="1016"
     inkscape:window-x="0"
     inkscape:window-y="0"
     inkscape:window-maximized="1"
     inkscape:current-layer="svg16" />
  <rect
     style="fill:#f0781b;fill-opacity:1;stroke-width:0.848097"
     id="rect1126"
     width="25"
     height="25"
     x="0"
     y="0" />
  <g
     id="g28"
     transform="matrix(0.31730708,0,0,0.31730366,2.3461575,2.3462671)">
    <path
       d="m 31.8987,26.0975 c -1.2235,0 -2.4471,-0.6107 -3.0589,-1.8319 L 19.8672,9 h 24.063 l -8.9726,15.2656 c -0.6118,1.2212 -1.8354,1.8319 -3.0589,1.8319 z"
       fill="#ffffff"
       id="path4" />
    <path
       d="m 40.0548,30.9829 c -1.2235,0 -2.4471,-0.6106 -3.0589,-1.8319 -0.6117,-1.2212 -0.6117,-2.4425 0,-3.6637 l 8.9727,-15.2656 12.0315,20.7612 z"
       fill="#ffffff"
       id="path6" />
    <path
       d="m 19.8672,55.0001 8.9726,-15.2656 c 0.6118,-1.2213 1.8354,-1.8319 3.0589,-1.8319 1.2235,0 2.4471,0.6106 3.0589,1.8319 l 8.9726,15.2656 z"
       fill="#ffffff"
       id="path8" />
    <path
       d="m 36.9959,38.5132 c -0.6117,-1.2213 -0.6117,-2.4425 0,-3.6638 0.6118,-1.2212 1.8354,-1.8318 3.0589,-1.8318 H 57.7962 L 45.7647,53.7788 Z"
       fill="#ffffff"
       id="path10" />
    <path
       d="m 6,30.9829 12.0315,-20.7612 8.9727,15.2656 c 0.6117,1.2212 0.6117,2.4425 0,3.6637 -0.6118,1.2213 -1.8353,1.8319 -3.0589,1.8319 z"
       fill="#ffffff"
       id="path12" />
    <path
       d="m 6,33.0176 h 17.7414 c 1.2235,0 2.4471,0.6106 3.0588,1.8318 0.6118,1.2213 0.6118,2.4425 0,3.6638 l -8.9726,15.2656 z"
       fill="#ffffff"
       id="path14" />
  </g>
</svg>
