<svg width="100" height="100" viewBox="0 0 100 100" fill="none" xmlns="http://www.w3.org/2000/svg">
<rect width="100" height="100" fill="white"/>
<path d="M76.4646 63.7997L67.6344 73.2672C67.443 73.4724 67.2116 73.6362 66.9545 73.7484C66.6973 73.8606 66.4199 73.9189 66.1393 73.9197H24.2786C24.0794 73.9187 23.8848 73.8598 23.7184 73.7502C23.552 73.6406 23.4211 73.485 23.3414 73.3024C23.2618 73.1198 23.2369 72.918 23.2698 72.7215C23.3027 72.525 23.392 72.3423 23.5267 72.1956L32.3461 62.7281C32.5375 62.5229 32.7689 62.3591 33.026 62.2469C33.2832 62.1347 33.5606 62.0764 33.8412 62.0756H75.7019C75.9033 62.0716 76.1014 62.1272 76.2713 62.2354C76.4412 62.3436 76.5754 62.4997 76.6569 62.6839C76.7383 62.8681 76.7636 63.0723 76.7294 63.2709C76.6952 63.4694 76.603 63.6534 76.4646 63.7997ZM67.6344 44.7285C67.4422 44.5243 67.2107 44.3613 66.9537 44.2491C66.6967 44.137 66.4197 44.0781 66.1393 44.076H24.2786C24.079 44.0761 23.8837 44.1345 23.7167 44.2439C23.5497 44.3533 23.4183 44.5091 23.3385 44.6921C23.2587 44.875 23.234 45.0773 23.2674 45.2742C23.3009 45.471 23.391 45.6538 23.5267 45.8001L32.3461 55.2742C32.5383 55.4783 32.7698 55.6414 33.0268 55.7536C33.2838 55.8657 33.5608 55.9246 33.8412 55.9267H75.7019C75.9007 55.9248 76.0948 55.8652 76.2605 55.7553C76.4262 55.6454 76.5565 55.4898 76.6356 55.3074C76.7147 55.1249 76.7393 54.9235 76.7062 54.7274C76.6732 54.5313 76.584 54.349 76.4494 54.2025L67.6344 44.7285ZM24.2786 37.9271H66.1393C66.4199 37.9263 66.6973 37.868 66.9545 37.7558C67.2116 37.6435 67.443 37.4798 67.6344 37.2746L76.4646 27.8049C76.5673 27.6951 76.6446 27.564 76.6911 27.421C76.7376 27.278 76.752 27.1265 76.7335 26.9773C76.7149 26.828 76.6638 26.6847 76.5838 26.5574C76.5037 26.4301 76.3966 26.322 76.2701 26.2407C76.1007 26.1323 75.903 26.0766 75.7019 26.0808H33.8412C33.5606 26.0816 33.2832 26.1399 33.026 26.2521C32.7689 26.3643 32.5375 26.5281 32.3461 26.7333L23.5267 36.203C23.391 36.3493 23.3009 36.5321 23.2674 36.729C23.234 36.9258 23.2587 37.1281 23.3385 37.3111C23.4183 37.4941 23.5497 37.6498 23.7167 37.7592C23.8837 37.8686 24.079 37.927 24.2786 37.9271Z" fill="url(#paint0_linear_94_349)"/>
<defs>
<linearGradient id="paint0_linear_94_349" x1="27.7679" y1="75.0627" x2="71.6595" y2="25.5774" gradientUnits="userSpaceOnUse">
<stop offset="0.08" stop-color="#9945FF"/>
<stop offset="0.3" stop-color="#8752F3"/>
<stop offset="0.5" stop-color="#5497D5"/>
<stop offset="0.6" stop-color="#43B4CA"/>
<stop offset="0.72" stop-color="#28E0B9"/>
<stop offset="0.97" stop-color="#19FB9B"/>
</linearGradient>
</defs>
</svg>
