<svg width="24" height="25" viewBox="0 0 24 25" fill="none" xmlns="http://www.w3.org/2000/svg">
<rect y="0.512695" width="24" height="24" rx="6" fill="white"/>
<rect x="0.5" y="1.0127" width="23" height="23" rx="5.5" stroke="white" stroke-opacity="0.2"/>
<path d="M18.3509 15.8246L16.2316 18.0968C16.1857 18.1461 16.1302 18.1854 16.0684 18.2123C16.0067 18.2392 15.9401 18.2532 15.8728 18.2534H5.82624C5.77843 18.2532 5.73172 18.239 5.69179 18.2127C5.65186 18.1864 5.62043 18.1491 5.60132 18.1053C5.58221 18.0615 5.57623 18.013 5.58413 17.9659C5.59202 17.9187 5.61344 17.8749 5.64579 17.8396L7.76244 15.5674C7.80837 15.5182 7.86391 15.4789 7.92563 15.452C7.98734 15.425 8.05393 15.411 8.12126 15.4108H18.1678C18.2162 15.4099 18.2637 15.4232 18.3045 15.4492C18.3453 15.4752 18.3775 15.5126 18.397 15.5568C18.4166 15.601 18.4226 15.6501 18.4144 15.6977C18.4062 15.7454 18.3841 15.7895 18.3509 15.8246ZM16.2316 11.2475C16.1855 11.1985 16.1299 11.1594 16.0683 11.1325C16.0066 11.1056 15.9401 11.0914 15.8728 11.0909H5.82624C5.77833 11.091 5.73146 11.105 5.69139 11.1312C5.65131 11.1575 5.61976 11.1949 5.60061 11.2388C5.58146 11.2827 5.57553 11.3313 5.58356 11.3785C5.59158 11.4257 5.61321 11.4696 5.64579 11.5047L7.76244 13.7785C7.80856 13.8275 7.86414 13.8666 7.92581 13.8936C7.98748 13.9205 8.05397 13.9346 8.12126 13.9351H18.1678C18.2156 13.9346 18.2621 13.9204 18.3019 13.894C18.3417 13.8676 18.3729 13.8303 18.3919 13.7865C18.4109 13.7427 18.4168 13.6943 18.4089 13.6473C18.4009 13.6002 18.3795 13.5565 18.3472 13.5213L16.2316 11.2475ZM5.82624 9.6152H15.8728C15.9401 9.61501 16.0067 9.60101 16.0684 9.57408C16.1302 9.54715 16.1857 9.50784 16.2316 9.4586L18.3509 7.18587C18.3755 7.15952 18.3941 7.12806 18.4052 7.09374C18.4164 7.05941 18.4199 7.02306 18.4154 6.98724C18.411 6.95143 18.3987 6.91703 18.3795 6.88648C18.3603 6.85593 18.3346 6.82998 18.3042 6.81046C18.2635 6.78444 18.2161 6.77109 18.1678 6.77209H8.12126C8.05393 6.77228 7.98734 6.78627 7.92563 6.81321C7.86391 6.84014 7.80837 6.87944 7.76244 6.92868L5.64579 9.20141C5.61321 9.23654 5.59158 9.28041 5.58356 9.32765C5.57553 9.37488 5.58146 9.42343 5.60061 9.46735C5.61976 9.51127 5.65131 9.54865 5.69139 9.57491C5.73146 9.60117 5.77833 9.61517 5.82624 9.6152Z" fill="url(#paint0_linear_2067_8360)"/>
<defs>
<linearGradient id="paint0_linear_2067_8360" x1="6.66367" y1="18.5277" x2="17.1977" y2="6.65127" gradientUnits="userSpaceOnUse">
<stop offset="0.08" stop-color="#9945FF"/>
<stop offset="0.3" stop-color="#8752F3"/>
<stop offset="0.5" stop-color="#5497D5"/>
<stop offset="0.6" stop-color="#43B4CA"/>
<stop offset="0.72" stop-color="#28E0B9"/>
<stop offset="0.97" stop-color="#19FB9B"/>
</linearGradient>
</defs>
</svg>
